<svg version="1.0" preserveAspectRatio="xMidYMid meet" viewBox="576.72 136.079998824 200.88 144.179998754" zoomAndPan="magnify" xmlns:xlink="http://www.w3.org/1999/xlink" xmlns="http://www.w3.org/2000/svg" style="max-height: 500px" width="200.88" height="144.179998754"><defs><g/></defs><g fill-opacity="1" fill="#373434"><g transform="translate(207.431873, 260.096666)"><g><path d="M 52.46875 0 C 52.894531 -0.164062 53.128906 -0.753906 53.171875 -1.765625 C 53.210938 -2.785156 52.851562 -4.601562 52.09375 -7.21875 L 43.09375 -38.140625 L 14.0625 -38.140625 L 11.65625 -29.78125 C 10.5625 -25.8125 10.4375 -21.925781 11.28125 -18.125 C 12.125 -14.320312 13.769531 -10.859375 16.21875 -7.734375 C 18.664062 -4.609375 21.664062 -2.03125 25.21875 0 L 2.53125 0 L 28.265625 -88.71875 C 28.429688 -88.632812 29.125 -88.210938 30.34375 -87.453125 C 31.570312 -86.691406 33.410156 -86.035156 35.859375 -85.484375 C 38.316406 -84.929688 41.40625 -84.828125 45.125 -85.171875 C 47.570312 -85.421875 49.976562 -85.925781 52.34375 -86.6875 C 54.707031 -87.445312 56.691406 -88.125 58.296875 -88.71875 L 81.484375 -8.75 C 82.421875 -5.625 83.179688 -3.425781 83.765625 -2.15625 C 84.359375 -0.882812 84.867188 -0.164062 85.296875 0 Z M 14.1875 -38.65625 L 42.96875 -38.65625 L 28.515625 -88.078125 Z M 14.1875 -38.65625"/></g></g></g><g fill-opacity="1" fill="#373434"><g transform="translate(328.711179, 260.096666)"><g><path d="M 45.125 -88.71875 C 50.101562 -88.71875 54.742188 -87.785156 59.046875 -85.921875 C 63.359375 -84.066406 67.160156 -81.488281 70.453125 -78.1875 C 73.753906 -74.894531 76.332031 -71.070312 78.1875 -66.71875 C 80.050781 -62.375 80.984375 -57.707031 80.984375 -52.71875 L 80.984375 -36 C 80.984375 -31.007812 80.050781 -26.335938 78.1875 -21.984375 C 76.332031 -17.640625 73.753906 -13.816406 70.453125 -10.515625 C 67.160156 -7.222656 63.359375 -4.644531 59.046875 -2.78125 C 54.742188 -0.925781 50.101562 0 45.125 0 L 2.53125 0 C 3.207031 -0.59375 3.753906 -1.671875 4.171875 -3.234375 C 4.597656 -4.796875 4.8125 -7.222656 4.8125 -10.515625 L 4.8125 -78.1875 C 4.8125 -81.488281 4.597656 -83.921875 4.171875 -85.484375 C 3.753906 -87.046875 3.207031 -88.125 2.53125 -88.71875 Z M 52.34375 -19.390625 L 52.34375 -72.484375 C 52.34375 -75.441406 51.625 -78.101562 50.1875 -80.46875 C 48.75 -82.84375 46.847656 -84.742188 44.484375 -86.171875 C 42.117188 -87.609375 39.457031 -88.328125 36.5 -88.328125 L 33.453125 -88.328125 L 33.453125 -0.375 C 38.691406 -0.375 43.171875 -2.234375 46.890625 -5.953125 C 50.523438 -9.585938 52.34375 -14.066406 52.34375 -19.390625 Z M 52.34375 -19.390625"/></g></g></g><g fill-opacity="1" fill="#373434"><g transform="translate(442.893775, 260.096666)"><g><path d="M 34.34375 -0.375 C 42.457031 -0.375 50.019531 -2.421875 57.03125 -6.515625 C 64.039062 -10.617188 69.53125 -16.21875 73.5 -23.3125 L 71.734375 0 L 2.53125 0 C 3.207031 -0.59375 3.753906 -1.671875 4.171875 -3.234375 C 4.597656 -4.796875 4.8125 -7.222656 4.8125 -10.515625 L 4.8125 -78.1875 C 4.8125 -81.488281 4.597656 -83.921875 4.171875 -85.484375 C 3.753906 -87.046875 3.207031 -88.125 2.53125 -88.71875 L 71.734375 -88.71875 L 73.5 -65.390625 C 69.53125 -72.492188 64.039062 -78.09375 57.03125 -82.1875 C 50.019531 -86.28125 42.457031 -88.328125 34.34375 -88.328125 L 33.453125 -88.328125 L 33.453125 -44.609375 C 33.796875 -44.609375 34.8125 -44.648438 36.5 -44.734375 C 38.1875 -44.816406 40.234375 -45.066406 42.640625 -45.484375 C 45.054688 -45.910156 47.550781 -46.566406 50.125 -47.453125 C 52.695312 -48.347656 55.0625 -49.597656 57.21875 -51.203125 C 59.375 -52.804688 61 -54.875 62.09375 -57.40625 L 62.09375 -31.296875 C 61 -33.835938 59.375 -35.910156 57.21875 -37.515625 C 55.0625 -39.117188 52.695312 -40.363281 50.125 -41.25 C 47.550781 -42.132812 45.054688 -42.785156 42.640625 -43.203125 C 40.234375 -43.628906 38.1875 -43.882812 36.5 -43.96875 C 34.8125 -44.0625 33.796875 -44.109375 33.453125 -44.109375 L 33.453125 -0.375 Z M 34.34375 -0.375"/></g></g></g><path stroke-miterlimit="4" stroke-opacity="1" stroke-width="4" stroke="#373434" d="M 2.000376 1.999511 L 120.647466 1.997867" stroke-linejoin="miter" fill="none" transform="matrix(0.210126, -0.719963, 0.719963, 0.210126, 209.780719, 259.836453)" stroke-linecap="round"/><path stroke-miterlimit="4" stroke-opacity="1" stroke-width="4" stroke="#373434" d="M 1.998603 1.999658 L 57.316314 1.999658" stroke-linejoin="miter" fill="none" transform="matrix(0.75, 0, 0, 0.75, 221.801829, 219.832288)" stroke-linecap="round"/><g fill-opacity="1" fill="#286181"><g transform="translate(584.021806, 261.74562)"><g><path d="M 67.640625 0 C 68.179688 -0.21875 68.476562 -0.976562 68.53125 -2.28125 C 68.59375 -3.59375 68.128906 -5.9375 67.140625 -9.3125 L 55.546875 -49.171875 L 18.140625 -49.171875 L 15.03125 -38.390625 C 13.613281 -33.273438 13.445312 -28.265625 14.53125 -23.359375 C 15.625 -18.460938 17.75 -14 20.90625 -9.96875 C 24.070312 -5.9375 27.941406 -2.613281 32.515625 0 L 3.265625 0 L 36.4375 -114.359375 C 36.65625 -114.253906 37.550781 -113.710938 39.125 -112.734375 C 40.707031 -111.753906 43.078125 -110.910156 46.234375 -110.203125 C 49.390625 -109.492188 53.363281 -109.351562 58.15625 -109.78125 C 61.320312 -110.113281 64.425781 -110.769531 67.46875 -111.75 C 70.519531 -112.726562 73.082031 -113.597656 75.15625 -114.359375 L 105.046875 -11.265625 C 106.242188 -7.242188 107.222656 -4.414062 107.984375 -2.78125 C 108.753906 -1.144531 109.410156 -0.21875 109.953125 0 Z M 18.296875 -49.828125 L 55.390625 -49.828125 L 36.765625 -113.546875 Z M 18.296875 -49.828125"/></g></g></g><g fill-opacity="1" fill="#286181"><g transform="translate(711.125644, 261.74562)"><g><path d="M 3.265625 0 C 4.140625 -0.757812 4.847656 -2.144531 5.390625 -4.15625 C 5.929688 -6.175781 6.203125 -9.3125 6.203125 -13.5625 L 6.203125 -100.796875 C 6.203125 -105.046875 5.929688 -108.175781 5.390625 -110.1875 C 4.847656 -112.207031 4.140625 -113.597656 3.265625 -114.359375 L 46.078125 -114.359375 C 45.085938 -113.597656 44.347656 -112.207031 43.859375 -110.1875 C 43.367188 -108.175781 43.125 -105.046875 43.125 -100.796875 L 43.125 -13.5625 C 43.125 -9.3125 43.367188 -6.175781 43.859375 -4.15625 C 44.347656 -2.144531 45.085938 -0.757812 46.078125 0 Z M 3.265625 0"/></g></g></g><path stroke-miterlimit="4" stroke-opacity="1" stroke-width="6" stroke="#286181" d="M 3.001043 2.996952 L 177.377673 3.00311" stroke-linejoin="miter" fill="none" transform="matrix(0.182503, -0.628719, 0.628719, 0.182503, 587.446966, 261.66408)" stroke-linecap="round"/><path stroke-miterlimit="4" stroke-opacity="1" stroke-width="5" stroke="#286181" d="M 2.497099 2.497487 L 56.61534 2.497487" stroke-linejoin="miter" fill="none" transform="matrix(0.654672, 0, 0, 0.654672, 602.576157, 211.470434)" stroke-linecap="round"/><path fill-rule="nonzero" fill-opacity="1" d="M 101.960938 110.210938 C 153.730469 110.210938 195.695312 152.179688 195.695312 203.945312 L 195.695312 204.75 C 195.695312 256.515625 153.730469 298.480469 101.960938 298.480469 C 50.195312 298.480469 8.226562 256.515625 8.226562 204.75 L 8.226562 203.945312 C 8.226562 152.179688 50.195312 110.210938 101.960938 110.210938 Z M 101.960938 110.210938" fill="#ebe9db"/><g fill-opacity="1" fill="#373434"><g transform="translate(8.228186, 258.643072)"><g><path d="M 147.84375 -112.765625 L 183.5 -112.765625 L 151.796875 0 L 105.03125 0 L 94.71875 -35.28125 L 84.625 0 L 37.65625 0 L 10.109375 -98.890625 C 8.523438 -103.773438 7.269531 -107.273438 6.34375 -109.390625 C 5.414062 -111.503906 4.625 -112.628906 3.96875 -112.765625 L 55.296875 -112.765625 C 54.628906 -112.628906 54.257812 -111.769531 54.1875 -110.1875 C 54.125 -108.601562 54.691406 -105.695312 55.890625 -101.46875 L 84.21875 -0.984375 L 94.328125 -36.46875 L 77.28125 -98.890625 C 75.832031 -103.773438 74.644531 -107.273438 73.71875 -109.390625 C 72.789062 -111.503906 72 -112.628906 71.34375 -112.765625 L 122.671875 -112.765625 C 122.003906 -112.628906 121.640625 -111.769531 121.578125 -110.1875 C 121.515625 -108.601562 122.078125 -105.695312 123.265625 -101.46875 L 151.40625 -0.984375 L 169.234375 -66.1875 C 171.085938 -72.394531 171.316406 -78.472656 169.921875 -84.421875 C 168.535156 -90.367188 165.925781 -95.785156 162.09375 -100.671875 C 158.269531 -105.554688 153.519531 -109.585938 147.84375 -112.765625 Z M 147.84375 -112.765625"/></g></g></g><g fill-opacity="1" fill="#373434"><g transform="translate(195.694273, 258.643072)"><g/></g></g><path stroke-miterlimit="4" stroke-opacity="1" stroke-width="5" stroke="#373434" d="M 2.498781 2.501509 L 136.816276 2.501768" stroke-linejoin="miter" fill="none" transform="matrix(0.180454, -0.62931, 0.62931, 0.180454, 156.701422, 257.390633)" stroke-linecap="round"/><path stroke-miterlimit="4" stroke-opacity="1" stroke-width="5" stroke="#373434" d="M 2.50065 2.497529 L 136.81241 2.499433" stroke-linejoin="miter" fill="none" transform="matrix(0.180454, -0.62931, 0.62931, 0.180454, 89.781714, 257.841746)" stroke-linecap="round"/><g fill-opacity="1" fill="#000000"><g transform="translate(33.847824, 330.137317)"><g><path d="M 21.953125 -14.296875 L 17.140625 0 L 15.546875 0 L 11.359375 -12.1875 L 7.140625 0 L 5.578125 0 L 0.75 -14.296875 L 2.3125 -14.296875 L 6.4375 -2 L 10.703125 -14.296875 L 12.109375 -14.296875 L 16.3125 -1.9375 L 20.5 -14.296875 Z M 21.953125 -14.296875"/></g></g></g><g fill-opacity="1" fill="#000000"><g transform="translate(55.405081, 330.137317)"><g><path d="M 6.40625 0.109375 C 5.375 0.109375 4.441406 -0.125 3.609375 -0.59375 C 2.785156 -1.070312 2.132812 -1.722656 1.65625 -2.546875 C 1.175781 -3.378906 0.9375 -4.320312 0.9375 -5.375 C 0.9375 -6.414062 1.175781 -7.351562 1.65625 -8.1875 C 2.132812 -9.019531 2.785156 -9.664062 3.609375 -10.125 C 4.441406 -10.59375 5.375 -10.828125 6.40625 -10.828125 C 7.445312 -10.828125 8.378906 -10.59375 9.203125 -10.125 C 10.035156 -9.664062 10.6875 -9.019531 11.15625 -8.1875 C 11.625 -7.351562 11.859375 -6.414062 11.859375 -5.375 C 11.859375 -4.320312 11.625 -3.378906 11.15625 -2.546875 C 10.6875 -1.722656 10.035156 -1.070312 9.203125 -0.59375 C 8.378906 -0.125 7.445312 0.109375 6.40625 0.109375 Z M 6.40625 -1.1875 C 7.175781 -1.1875 7.863281 -1.359375 8.46875 -1.703125 C 9.070312 -2.046875 9.539062 -2.535156 9.875 -3.171875 C 10.21875 -3.816406 10.390625 -4.550781 10.390625 -5.375 C 10.390625 -6.1875 10.21875 -6.910156 9.875 -7.546875 C 9.539062 -8.191406 9.070312 -8.6875 8.46875 -9.03125 C 7.863281 -9.382812 7.175781 -9.5625 6.40625 -9.5625 C 5.644531 -9.5625 4.960938 -9.382812 4.359375 -9.03125 C 3.753906 -8.6875 3.273438 -8.191406 2.921875 -7.546875 C 2.578125 -6.910156 2.40625 -6.1875 2.40625 -5.375 C 2.40625 -4.550781 2.578125 -3.816406 2.921875 -3.171875 C 3.273438 -2.535156 3.753906 -2.046875 4.359375 -1.703125 C 4.960938 -1.359375 5.644531 -1.1875 6.40625 -1.1875 Z M 6.40625 -1.1875"/></g></g></g><g fill-opacity="1" fill="#000000"><g transform="translate(68.204725, 330.137317)"><g><path d="M 3.40625 -8.640625 C 3.75 -9.359375 4.253906 -9.898438 4.921875 -10.265625 C 5.597656 -10.640625 6.4375 -10.828125 7.4375 -10.828125 L 7.4375 -9.421875 L 7.09375 -9.4375 C 5.957031 -9.4375 5.066406 -9.085938 4.421875 -8.390625 C 3.785156 -7.703125 3.46875 -6.726562 3.46875 -5.46875 L 3.46875 0 L 2.015625 0 L 2.015625 -10.734375 L 3.40625 -10.734375 Z M 3.40625 -8.640625"/></g></g></g><g fill-opacity="1" fill="#000000"><g transform="translate(76.227468, 330.137317)"><g><path d="M 6 -5.390625 L 3.46875 -3.0625 L 3.46875 0 L 2.015625 0 L 2.015625 -15.15625 L 3.46875 -15.15625 L 3.46875 -4.875 L 9.890625 -10.734375 L 11.6875 -10.734375 L 7.09375 -6.34375 L 12.109375 0 L 10.328125 0 Z M 6 -5.390625"/></g></g></g><g fill-opacity="1" fill="#000000"><g transform="translate(88.169709, 330.137317)"><g><path d="M 4.90625 0.109375 C 4.03125 0.109375 3.191406 -0.015625 2.390625 -0.265625 C 1.597656 -0.523438 0.976562 -0.84375 0.53125 -1.21875 L 1.1875 -2.375 C 1.632812 -2.019531 2.195312 -1.726562 2.875 -1.5 C 3.5625 -1.269531 4.269531 -1.15625 5 -1.15625 C 5.976562 -1.15625 6.703125 -1.304688 7.171875 -1.609375 C 7.648438 -1.921875 7.890625 -2.359375 7.890625 -2.921875 C 7.890625 -3.316406 7.757812 -3.625 7.5 -3.84375 C 7.238281 -4.070312 6.910156 -4.242188 6.515625 -4.359375 C 6.117188 -4.472656 5.59375 -4.585938 4.9375 -4.703125 C 4.070312 -4.859375 3.375 -5.019531 2.84375 -5.1875 C 2.3125 -5.363281 1.859375 -5.65625 1.484375 -6.0625 C 1.109375 -6.46875 0.921875 -7.035156 0.921875 -7.765625 C 0.921875 -8.660156 1.296875 -9.394531 2.046875 -9.96875 C 2.796875 -10.539062 3.835938 -10.828125 5.171875 -10.828125 C 5.859375 -10.828125 6.550781 -10.734375 7.25 -10.546875 C 7.945312 -10.359375 8.519531 -10.117188 8.96875 -9.828125 L 8.328125 -8.65625 C 7.441406 -9.269531 6.390625 -9.578125 5.171875 -9.578125 C 4.242188 -9.578125 3.546875 -9.410156 3.078125 -9.078125 C 2.609375 -8.753906 2.375 -8.328125 2.375 -7.796875 C 2.375 -7.390625 2.503906 -7.0625 2.765625 -6.8125 C 3.035156 -6.570312 3.363281 -6.394531 3.75 -6.28125 C 4.144531 -6.164062 4.691406 -6.046875 5.390625 -5.921875 C 6.242188 -5.753906 6.929688 -5.585938 7.453125 -5.421875 C 7.972656 -5.265625 8.414062 -4.988281 8.78125 -4.59375 C 9.144531 -4.195312 9.328125 -3.65625 9.328125 -2.96875 C 9.328125 -2.019531 8.9375 -1.269531 8.15625 -0.71875 C 7.375 -0.164062 6.289062 0.109375 4.90625 0.109375 Z M 4.90625 0.109375"/></g></g></g><g fill-opacity="1" fill="#000000"><g transform="translate(98.152207, 330.137317)"><g><path d="M 7.671875 -0.65625 C 7.398438 -0.40625 7.0625 -0.210938 6.65625 -0.078125 C 6.257812 0.046875 5.84375 0.109375 5.40625 0.109375 C 4.40625 0.109375 3.628906 -0.160156 3.078125 -0.703125 C 2.535156 -1.253906 2.265625 -2.023438 2.265625 -3.015625 L 2.265625 -9.515625 L 0.34375 -9.515625 L 0.34375 -10.734375 L 2.265625 -10.734375 L 2.265625 -13.09375 L 3.71875 -13.09375 L 3.71875 -10.734375 L 6.984375 -10.734375 L 6.984375 -9.515625 L 3.71875 -9.515625 L 3.71875 -3.109375 C 3.71875 -2.460938 3.875 -1.972656 4.1875 -1.640625 C 4.507812 -1.304688 4.972656 -1.140625 5.578125 -1.140625 C 5.878906 -1.140625 6.164062 -1.1875 6.4375 -1.28125 C 6.71875 -1.375 6.960938 -1.507812 7.171875 -1.6875 Z M 7.671875 -0.65625"/></g></g></g><g fill-opacity="1" fill="#000000"><g transform="translate(106.440338, 330.137317)"><g><path d="M 3.40625 -8.640625 C 3.75 -9.359375 4.253906 -9.898438 4.921875 -10.265625 C 5.597656 -10.640625 6.4375 -10.828125 7.4375 -10.828125 L 7.4375 -9.421875 L 7.09375 -9.4375 C 5.957031 -9.4375 5.066406 -9.085938 4.421875 -8.390625 C 3.785156 -7.703125 3.46875 -6.726562 3.46875 -5.46875 L 3.46875 0 L 2.015625 0 L 2.015625 -10.734375 L 3.40625 -10.734375 Z M 3.40625 -8.640625"/></g></g></g><g fill-opacity="1" fill="#000000"><g transform="translate(114.361, 330.137317)"><g><path d="M 11.375 -4.921875 L 2.390625 -4.921875 C 2.472656 -3.804688 2.898438 -2.90625 3.671875 -2.21875 C 4.453125 -1.53125 5.429688 -1.1875 6.609375 -1.1875 C 7.285156 -1.1875 7.898438 -1.304688 8.453125 -1.546875 C 9.015625 -1.785156 9.5 -2.132812 9.90625 -2.59375 L 10.71875 -1.65625 C 10.238281 -1.082031 9.640625 -0.644531 8.921875 -0.34375 C 8.210938 -0.0390625 7.429688 0.109375 6.578125 0.109375 C 5.472656 0.109375 4.492188 -0.125 3.640625 -0.59375 C 2.796875 -1.070312 2.132812 -1.722656 1.65625 -2.546875 C 1.175781 -3.378906 0.9375 -4.320312 0.9375 -5.375 C 0.9375 -6.414062 1.164062 -7.351562 1.625 -8.1875 C 2.082031 -9.019531 2.707031 -9.664062 3.5 -10.125 C 4.300781 -10.59375 5.195312 -10.828125 6.1875 -10.828125 C 7.175781 -10.828125 8.066406 -10.59375 8.859375 -10.125 C 9.648438 -9.664062 10.269531 -9.023438 10.71875 -8.203125 C 11.164062 -7.378906 11.390625 -6.4375 11.390625 -5.375 Z M 6.1875 -9.578125 C 5.15625 -9.578125 4.285156 -9.242188 3.578125 -8.578125 C 2.878906 -7.921875 2.484375 -7.0625 2.390625 -6 L 10 -6 C 9.90625 -7.0625 9.507812 -7.921875 8.8125 -8.578125 C 8.113281 -9.242188 7.238281 -9.578125 6.1875 -9.578125 Z M 6.1875 -9.578125"/></g></g></g><g fill-opacity="1" fill="#000000"><g transform="translate(126.384906, 330.137317)"><g><path d="M 5.78125 -10.828125 C 7.1875 -10.828125 8.257812 -10.472656 9 -9.765625 C 9.75 -9.066406 10.125 -8.03125 10.125 -6.65625 L 10.125 0 L 8.734375 0 L 8.734375 -1.671875 C 8.410156 -1.117188 7.929688 -0.679688 7.296875 -0.359375 C 6.660156 -0.046875 5.910156 0.109375 5.046875 0.109375 C 3.847656 0.109375 2.894531 -0.175781 2.1875 -0.75 C 1.476562 -1.320312 1.125 -2.078125 1.125 -3.015625 C 1.125 -3.929688 1.453125 -4.664062 2.109375 -5.21875 C 2.773438 -5.78125 3.828125 -6.0625 5.265625 -6.0625 L 8.671875 -6.0625 L 8.671875 -6.71875 C 8.671875 -7.644531 8.410156 -8.347656 7.890625 -8.828125 C 7.378906 -9.316406 6.628906 -9.5625 5.640625 -9.5625 C 4.953125 -9.5625 4.296875 -9.445312 3.671875 -9.21875 C 3.046875 -9 2.507812 -8.691406 2.0625 -8.296875 L 1.40625 -9.375 C 1.945312 -9.832031 2.597656 -10.1875 3.359375 -10.4375 C 4.128906 -10.695312 4.9375 -10.828125 5.78125 -10.828125 Z M 5.265625 -1.046875 C 6.085938 -1.046875 6.789062 -1.234375 7.375 -1.609375 C 7.957031 -1.984375 8.390625 -2.523438 8.671875 -3.234375 L 8.671875 -4.984375 L 5.3125 -4.984375 C 3.46875 -4.984375 2.546875 -4.34375 2.546875 -3.0625 C 2.546875 -2.4375 2.785156 -1.941406 3.265625 -1.578125 C 3.742188 -1.222656 4.410156 -1.046875 5.265625 -1.046875 Z M 5.265625 -1.046875"/></g></g></g><g fill-opacity="1" fill="#000000"><g transform="translate(138.429228, 330.137317)"><g><path d="M 15.421875 -10.828125 C 16.765625 -10.828125 17.820312 -10.4375 18.59375 -9.65625 C 19.363281 -8.882812 19.75 -7.742188 19.75 -6.234375 L 19.75 0 L 18.296875 0 L 18.296875 -6.078125 C 18.296875 -7.203125 18.023438 -8.054688 17.484375 -8.640625 C 16.953125 -9.222656 16.195312 -9.515625 15.21875 -9.515625 C 14.101562 -9.515625 13.222656 -9.171875 12.578125 -8.484375 C 11.941406 -7.796875 11.625 -6.847656 11.625 -5.640625 L 11.625 0 L 10.171875 0 L 10.171875 -6.078125 C 10.171875 -7.203125 9.898438 -8.054688 9.359375 -8.640625 C 8.828125 -9.222656 8.0625 -9.515625 7.0625 -9.515625 C 5.957031 -9.515625 5.082031 -9.171875 4.4375 -8.484375 C 3.789062 -7.796875 3.46875 -6.847656 3.46875 -5.640625 L 3.46875 0 L 2.015625 0 L 2.015625 -10.734375 L 3.40625 -10.734375 L 3.40625 -8.78125 C 3.789062 -9.4375 4.320312 -9.941406 5 -10.296875 C 5.6875 -10.648438 6.472656 -10.828125 7.359375 -10.828125 C 8.253906 -10.828125 9.03125 -10.632812 9.6875 -10.25 C 10.351562 -9.875 10.847656 -9.3125 11.171875 -8.5625 C 11.566406 -9.269531 12.132812 -9.820312 12.875 -10.21875 C 13.613281 -10.625 14.460938 -10.828125 15.421875 -10.828125 Z M 15.421875 -10.828125"/></g></g></g><g fill-opacity="1" fill="#000000"><g transform="translate(160.088602, 330.137317)"><g><path d="M 4.90625 0.109375 C 4.03125 0.109375 3.191406 -0.015625 2.390625 -0.265625 C 1.597656 -0.523438 0.976562 -0.84375 0.53125 -1.21875 L 1.1875 -2.375 C 1.632812 -2.019531 2.195312 -1.726562 2.875 -1.5 C 3.5625 -1.269531 4.269531 -1.15625 5 -1.15625 C 5.976562 -1.15625 6.703125 -1.304688 7.171875 -1.609375 C 7.648438 -1.921875 7.890625 -2.359375 7.890625 -2.921875 C 7.890625 -3.316406 7.757812 -3.625 7.5 -3.84375 C 7.238281 -4.070312 6.910156 -4.242188 6.515625 -4.359375 C 6.117188 -4.472656 5.59375 -4.585938 4.9375 -4.703125 C 4.070312 -4.859375 3.375 -5.019531 2.84375 -5.1875 C 2.3125 -5.363281 1.859375 -5.65625 1.484375 -6.0625 C 1.109375 -6.46875 0.921875 -7.035156 0.921875 -7.765625 C 0.921875 -8.660156 1.296875 -9.394531 2.046875 -9.96875 C 2.796875 -10.539062 3.835938 -10.828125 5.171875 -10.828125 C 5.859375 -10.828125 6.550781 -10.734375 7.25 -10.546875 C 7.945312 -10.359375 8.519531 -10.117188 8.96875 -9.828125 L 8.328125 -8.65625 C 7.441406 -9.269531 6.390625 -9.578125 5.171875 -9.578125 C 4.242188 -9.578125 3.546875 -9.410156 3.078125 -9.078125 C 2.609375 -8.753906 2.375 -8.328125 2.375 -7.796875 C 2.375 -7.390625 2.503906 -7.0625 2.765625 -6.8125 C 3.035156 -6.570312 3.363281 -6.394531 3.75 -6.28125 C 4.144531 -6.164062 4.691406 -6.046875 5.390625 -5.921875 C 6.242188 -5.753906 6.929688 -5.585938 7.453125 -5.421875 C 7.972656 -5.265625 8.414062 -4.988281 8.78125 -4.59375 C 9.144531 -4.195312 9.328125 -3.65625 9.328125 -2.96875 C 9.328125 -2.019531 8.9375 -1.269531 8.15625 -0.71875 C 7.375 -0.164062 6.289062 0.109375 4.90625 0.109375 Z M 4.90625 0.109375"/></g></g></g><g fill-opacity="1" fill="#000000"><g transform="translate(207.467103, 330.137317)"><g><path d="M 11.296875 -3.8125 L 3.328125 -3.8125 L 1.609375 0 L 0.046875 0 L 6.578125 -14.296875 L 8.0625 -14.296875 L 14.609375 0 L 13.015625 0 Z M 10.734375 -5.046875 L 7.3125 -12.71875 L 3.875 -5.046875 Z M 10.734375 -5.046875"/></g></g></g><g fill-opacity="1" fill="#000000"><g transform="translate(222.001957, 330.137317)"><g><path d="M 6.46875 0.109375 C 5.40625 0.109375 4.457031 -0.117188 3.625 -0.578125 C 2.789062 -1.046875 2.132812 -1.695312 1.65625 -2.53125 C 1.175781 -3.375 0.9375 -4.320312 0.9375 -5.375 C 0.9375 -6.414062 1.175781 -7.351562 1.65625 -8.1875 C 2.132812 -9.019531 2.789062 -9.664062 3.625 -10.125 C 4.457031 -10.59375 5.40625 -10.828125 6.46875 -10.828125 C 7.394531 -10.828125 8.222656 -10.644531 8.953125 -10.28125 C 9.679688 -9.914062 10.257812 -9.390625 10.6875 -8.703125 L 9.59375 -7.96875 C 9.238281 -8.5 8.789062 -8.894531 8.25 -9.15625 C 7.707031 -9.425781 7.113281 -9.5625 6.46875 -9.5625 C 5.695312 -9.5625 5 -9.382812 4.375 -9.03125 C 3.757812 -8.6875 3.273438 -8.191406 2.921875 -7.546875 C 2.578125 -6.910156 2.40625 -6.1875 2.40625 -5.375 C 2.40625 -4.539062 2.578125 -3.804688 2.921875 -3.171875 C 3.273438 -2.535156 3.757812 -2.046875 4.375 -1.703125 C 5 -1.359375 5.695312 -1.1875 6.46875 -1.1875 C 7.113281 -1.1875 7.707031 -1.3125 8.25 -1.5625 C 8.789062 -1.820312 9.238281 -2.21875 9.59375 -2.75 L 10.6875 -2.015625 C 10.257812 -1.328125 9.675781 -0.800781 8.9375 -0.4375 C 8.207031 -0.0703125 7.382812 0.109375 6.46875 0.109375 Z M 6.46875 0.109375"/></g></g></g><g fill-opacity="1" fill="#000000"><g transform="translate(233.617584, 330.137317)"><g><path d="M 7.671875 -0.65625 C 7.398438 -0.40625 7.0625 -0.210938 6.65625 -0.078125 C 6.257812 0.046875 5.84375 0.109375 5.40625 0.109375 C 4.40625 0.109375 3.628906 -0.160156 3.078125 -0.703125 C 2.535156 -1.253906 2.265625 -2.023438 2.265625 -3.015625 L 2.265625 -9.515625 L 0.34375 -9.515625 L 0.34375 -10.734375 L 2.265625 -10.734375 L 2.265625 -13.09375 L 3.71875 -13.09375 L 3.71875 -10.734375 L 6.984375 -10.734375 L 6.984375 -9.515625 L 3.71875 -9.515625 L 3.71875 -3.109375 C 3.71875 -2.460938 3.875 -1.972656 4.1875 -1.640625 C 4.507812 -1.304688 4.972656 -1.140625 5.578125 -1.140625 C 5.878906 -1.140625 6.164062 -1.1875 6.4375 -1.28125 C 6.71875 -1.375 6.960938 -1.507812 7.171875 -1.6875 Z M 7.671875 -0.65625"/></g></g></g><g fill-opacity="1" fill="#000000"><g transform="translate(241.905715, 330.137317)"><g><path d="M 2.015625 -10.734375 L 3.46875 -10.734375 L 3.46875 0 L 2.015625 0 Z M 2.765625 -13.09375 C 2.460938 -13.09375 2.207031 -13.191406 2 -13.390625 C 1.800781 -13.597656 1.703125 -13.84375 1.703125 -14.125 C 1.703125 -14.40625 1.800781 -14.644531 2 -14.84375 C 2.207031 -15.050781 2.460938 -15.15625 2.765625 -15.15625 C 3.066406 -15.15625 3.316406 -15.054688 3.515625 -14.859375 C 3.722656 -14.660156 3.828125 -14.425781 3.828125 -14.15625 C 3.828125 -13.851562 3.722656 -13.597656 3.515625 -13.390625 C 3.316406 -13.191406 3.066406 -13.09375 2.765625 -13.09375 Z M 2.765625 -13.09375"/></g></g></g><g fill-opacity="1" fill="#000000"><g transform="translate(247.397117, 330.137317)"><g><path d="M 6.40625 0.109375 C 5.375 0.109375 4.441406 -0.125 3.609375 -0.59375 C 2.785156 -1.070312 2.132812 -1.722656 1.65625 -2.546875 C 1.175781 -3.378906 0.9375 -4.320312 0.9375 -5.375 C 0.9375 -6.414062 1.175781 -7.351562 1.65625 -8.1875 C 2.132812 -9.019531 2.785156 -9.664062 3.609375 -10.125 C 4.441406 -10.59375 5.375 -10.828125 6.40625 -10.828125 C 7.445312 -10.828125 8.378906 -10.59375 9.203125 -10.125 C 10.035156 -9.664062 10.6875 -9.019531 11.15625 -8.1875 C 11.625 -7.351562 11.859375 -6.414062 11.859375 -5.375 C 11.859375 -4.320312 11.625 -3.378906 11.15625 -2.546875 C 10.6875 -1.722656 10.035156 -1.070312 9.203125 -0.59375 C 8.378906 -0.125 7.445312 0.109375 6.40625 0.109375 Z M 6.40625 -1.1875 C 7.175781 -1.1875 7.863281 -1.359375 8.46875 -1.703125 C 9.070312 -2.046875 9.539062 -2.535156 9.875 -3.171875 C 10.21875 -3.816406 10.390625 -4.550781 10.390625 -5.375 C 10.390625 -6.1875 10.21875 -6.910156 9.875 -7.546875 C 9.539062 -8.191406 9.070312 -8.6875 8.46875 -9.03125 C 7.863281 -9.382812 7.175781 -9.5625 6.40625 -9.5625 C 5.644531 -9.5625 4.960938 -9.382812 4.359375 -9.03125 C 3.753906 -8.6875 3.273438 -8.191406 2.921875 -7.546875 C 2.578125 -6.910156 2.40625 -6.1875 2.40625 -5.375 C 2.40625 -4.550781 2.578125 -3.816406 2.921875 -3.171875 C 3.273438 -2.535156 3.753906 -2.046875 4.359375 -1.703125 C 4.960938 -1.359375 5.644531 -1.1875 6.40625 -1.1875 Z M 6.40625 -1.1875"/></g></g></g><g fill-opacity="1" fill="#000000"><g transform="translate(260.196761, 330.137317)"><g><path d="M 7.5 -10.828125 C 8.84375 -10.828125 9.910156 -10.429688 10.703125 -9.640625 C 11.503906 -8.859375 11.90625 -7.722656 11.90625 -6.234375 L 11.90625 0 L 10.453125 0 L 10.453125 -6.078125 C 10.453125 -7.203125 10.171875 -8.054688 9.609375 -8.640625 C 9.054688 -9.222656 8.265625 -9.515625 7.234375 -9.515625 C 6.078125 -9.515625 5.160156 -9.171875 4.484375 -8.484375 C 3.804688 -7.796875 3.46875 -6.847656 3.46875 -5.640625 L 3.46875 0 L 2.015625 0 L 2.015625 -10.734375 L 3.40625 -10.734375 L 3.40625 -8.765625 C 3.800781 -9.410156 4.347656 -9.914062 5.046875 -10.28125 C 5.753906 -10.644531 6.570312 -10.828125 7.5 -10.828125 Z M 7.5 -10.828125"/></g></g></g><g fill-opacity="1" fill="#000000"><g transform="translate(274.017114, 330.137317)"><g><path d="M 4.90625 0.109375 C 4.03125 0.109375 3.191406 -0.015625 2.390625 -0.265625 C 1.597656 -0.523438 0.976562 -0.84375 0.53125 -1.21875 L 1.1875 -2.375 C 1.632812 -2.019531 2.195312 -1.726562 2.875 -1.5 C 3.5625 -1.269531 4.269531 -1.15625 5 -1.15625 C 5.976562 -1.15625 6.703125 -1.304688 7.171875 -1.609375 C 7.648438 -1.921875 7.890625 -2.359375 7.890625 -2.921875 C 7.890625 -3.316406 7.757812 -3.625 7.5 -3.84375 C 7.238281 -4.070312 6.910156 -4.242188 6.515625 -4.359375 C 6.117188 -4.472656 5.59375 -4.585938 4.9375 -4.703125 C 4.070312 -4.859375 3.375 -5.019531 2.84375 -5.1875 C 2.3125 -5.363281 1.859375 -5.65625 1.484375 -6.0625 C 1.109375 -6.46875 0.921875 -7.035156 0.921875 -7.765625 C 0.921875 -8.660156 1.296875 -9.394531 2.046875 -9.96875 C 2.796875 -10.539062 3.835938 -10.828125 5.171875 -10.828125 C 5.859375 -10.828125 6.550781 -10.734375 7.25 -10.546875 C 7.945312 -10.359375 8.519531 -10.117188 8.96875 -9.828125 L 8.328125 -8.65625 C 7.441406 -9.269531 6.390625 -9.578125 5.171875 -9.578125 C 4.242188 -9.578125 3.546875 -9.410156 3.078125 -9.078125 C 2.609375 -8.753906 2.375 -8.328125 2.375 -7.796875 C 2.375 -7.390625 2.503906 -7.0625 2.765625 -6.8125 C 3.035156 -6.570312 3.363281 -6.394531 3.75 -6.28125 C 4.144531 -6.164062 4.691406 -6.046875 5.390625 -5.921875 C 6.242188 -5.753906 6.929688 -5.585938 7.453125 -5.421875 C 7.972656 -5.265625 8.414062 -4.988281 8.78125 -4.59375 C 9.144531 -4.195312 9.328125 -3.65625 9.328125 -2.96875 C 9.328125 -2.019531 8.9375 -1.269531 8.15625 -0.71875 C 7.375 -0.164062 6.289062 0.109375 4.90625 0.109375 Z M 4.90625 0.109375"/></g></g></g><g fill-opacity="1" fill="#000000"><g transform="translate(315.364264, 330.137317)"><g><path d="M 2.328125 -14.296875 L 8.140625 -14.296875 C 9.660156 -14.296875 11 -13.992188 12.15625 -13.390625 C 13.3125 -12.785156 14.207031 -11.941406 14.84375 -10.859375 C 15.488281 -9.773438 15.8125 -8.535156 15.8125 -7.140625 C 15.8125 -5.753906 15.488281 -4.519531 14.84375 -3.4375 C 14.207031 -2.351562 13.3125 -1.507812 12.15625 -0.90625 C 11 -0.300781 9.660156 0 8.140625 0 L 2.328125 0 Z M 8.0625 -1.3125 C 9.320312 -1.3125 10.421875 -1.554688 11.359375 -2.046875 C 12.296875 -2.546875 13.019531 -3.234375 13.53125 -4.109375 C 14.050781 -4.992188 14.3125 -6.003906 14.3125 -7.140625 C 14.3125 -8.285156 14.050781 -9.296875 13.53125 -10.171875 C 13.019531 -11.054688 12.296875 -11.742188 11.359375 -12.234375 C 10.421875 -12.734375 9.320312 -12.984375 8.0625 -12.984375 L 3.84375 -12.984375 L 3.84375 -1.3125 Z M 8.0625 -1.3125"/></g></g></g><g fill-opacity="1" fill="#000000"><g transform="translate(332.22632, 330.137317)"><g><path d="M 11.375 -4.921875 L 2.390625 -4.921875 C 2.472656 -3.804688 2.898438 -2.90625 3.671875 -2.21875 C 4.453125 -1.53125 5.429688 -1.1875 6.609375 -1.1875 C 7.285156 -1.1875 7.898438 -1.304688 8.453125 -1.546875 C 9.015625 -1.785156 9.5 -2.132812 9.90625 -2.59375 L 10.71875 -1.65625 C 10.238281 -1.082031 9.640625 -0.644531 8.921875 -0.34375 C 8.210938 -0.0390625 7.429688 0.109375 6.578125 0.109375 C 5.472656 0.109375 4.492188 -0.125 3.640625 -0.59375 C 2.796875 -1.070312 2.132812 -1.722656 1.65625 -2.546875 C 1.175781 -3.378906 0.9375 -4.320312 0.9375 -5.375 C 0.9375 -6.414062 1.164062 -7.351562 1.625 -8.1875 C 2.082031 -9.019531 2.707031 -9.664062 3.5 -10.125 C 4.300781 -10.59375 5.195312 -10.828125 6.1875 -10.828125 C 7.175781 -10.828125 8.066406 -10.59375 8.859375 -10.125 C 9.648438 -9.664062 10.269531 -9.023438 10.71875 -8.203125 C 11.164062 -7.378906 11.390625 -6.4375 11.390625 -5.375 Z M 6.1875 -9.578125 C 5.15625 -9.578125 4.285156 -9.242188 3.578125 -8.578125 C 2.878906 -7.921875 2.484375 -7.0625 2.390625 -6 L 10 -6 C 9.90625 -7.0625 9.507812 -7.921875 8.8125 -8.578125 C 8.113281 -9.242188 7.238281 -9.578125 6.1875 -9.578125 Z M 6.1875 -9.578125"/></g></g></g><g fill-opacity="1" fill="#000000"><g transform="translate(344.556447, 330.137317)"><g><path d="M 6.46875 0.109375 C 5.40625 0.109375 4.457031 -0.117188 3.625 -0.578125 C 2.789062 -1.046875 2.132812 -1.695312 1.65625 -2.53125 C 1.175781 -3.375 0.9375 -4.320312 0.9375 -5.375 C 0.9375 -6.414062 1.175781 -7.351562 1.65625 -8.1875 C 2.132812 -9.019531 2.789062 -9.664062 3.625 -10.125 C 4.457031 -10.59375 5.40625 -10.828125 6.46875 -10.828125 C 7.394531 -10.828125 8.222656 -10.644531 8.953125 -10.28125 C 9.679688 -9.914062 10.257812 -9.390625 10.6875 -8.703125 L 9.59375 -7.96875 C 9.238281 -8.5 8.789062 -8.894531 8.25 -9.15625 C 7.707031 -9.425781 7.113281 -9.5625 6.46875 -9.5625 C 5.695312 -9.5625 5 -9.382812 4.375 -9.03125 C 3.757812 -8.6875 3.273438 -8.191406 2.921875 -7.546875 C 2.578125 -6.910156 2.40625 -6.1875 2.40625 -5.375 C 2.40625 -4.539062 2.578125 -3.804688 2.921875 -3.171875 C 3.273438 -2.535156 3.757812 -2.046875 4.375 -1.703125 C 5 -1.359375 5.695312 -1.1875 6.46875 -1.1875 C 7.113281 -1.1875 7.707031 -1.3125 8.25 -1.5625 C 8.789062 -1.820312 9.238281 -2.21875 9.59375 -2.75 L 10.6875 -2.015625 C 10.257812 -1.328125 9.675781 -0.800781 8.9375 -0.4375 C 8.207031 -0.0703125 7.382812 0.109375 6.46875 0.109375 Z M 6.46875 0.109375"/></g></g></g><g fill-opacity="1" fill="#000000"><g transform="translate(356.049588, 330.137317)"><g><path d="M 2.015625 -10.734375 L 3.46875 -10.734375 L 3.46875 0 L 2.015625 0 Z M 2.765625 -13.09375 C 2.460938 -13.09375 2.207031 -13.191406 2 -13.390625 C 1.800781 -13.597656 1.703125 -13.84375 1.703125 -14.125 C 1.703125 -14.40625 1.800781 -14.644531 2 -14.84375 C 2.207031 -15.050781 2.460938 -15.15625 2.765625 -15.15625 C 3.066406 -15.15625 3.316406 -15.054688 3.515625 -14.859375 C 3.722656 -14.660156 3.828125 -14.425781 3.828125 -14.15625 C 3.828125 -13.851562 3.722656 -13.597656 3.515625 -13.390625 C 3.316406 -13.191406 3.066406 -13.09375 2.765625 -13.09375 Z M 2.765625 -13.09375"/></g></g></g><g fill-opacity="1" fill="#000000"><g transform="translate(361.540989, 330.137317)"><g><path d="M 4.90625 0.109375 C 4.03125 0.109375 3.191406 -0.015625 2.390625 -0.265625 C 1.597656 -0.523438 0.976562 -0.84375 0.53125 -1.21875 L 1.1875 -2.375 C 1.632812 -2.019531 2.195312 -1.726562 2.875 -1.5 C 3.5625 -1.269531 4.269531 -1.15625 5 -1.15625 C 5.976562 -1.15625 6.703125 -1.304688 7.171875 -1.609375 C 7.648438 -1.921875 7.890625 -2.359375 7.890625 -2.921875 C 7.890625 -3.316406 7.757812 -3.625 7.5 -3.84375 C 7.238281 -4.070312 6.910156 -4.242188 6.515625 -4.359375 C 6.117188 -4.472656 5.59375 -4.585938 4.9375 -4.703125 C 4.070312 -4.859375 3.375 -5.019531 2.84375 -5.1875 C 2.3125 -5.363281 1.859375 -5.65625 1.484375 -6.0625 C 1.109375 -6.46875 0.921875 -7.035156 0.921875 -7.765625 C 0.921875 -8.660156 1.296875 -9.394531 2.046875 -9.96875 C 2.796875 -10.539062 3.835938 -10.828125 5.171875 -10.828125 C 5.859375 -10.828125 6.550781 -10.734375 7.25 -10.546875 C 7.945312 -10.359375 8.519531 -10.117188 8.96875 -9.828125 L 8.328125 -8.65625 C 7.441406 -9.269531 6.390625 -9.578125 5.171875 -9.578125 C 4.242188 -9.578125 3.546875 -9.410156 3.078125 -9.078125 C 2.609375 -8.753906 2.375 -8.328125 2.375 -7.796875 C 2.375 -7.390625 2.503906 -7.0625 2.765625 -6.8125 C 3.035156 -6.570312 3.363281 -6.394531 3.75 -6.28125 C 4.144531 -6.164062 4.691406 -6.046875 5.390625 -5.921875 C 6.242188 -5.753906 6.929688 -5.585938 7.453125 -5.421875 C 7.972656 -5.265625 8.414062 -4.988281 8.78125 -4.59375 C 9.144531 -4.195312 9.328125 -3.65625 9.328125 -2.96875 C 9.328125 -2.019531 8.9375 -1.269531 8.15625 -0.71875 C 7.375 -0.164062 6.289062 0.109375 4.90625 0.109375 Z M 4.90625 0.109375"/></g></g></g><g fill-opacity="1" fill="#000000"><g transform="translate(371.523487, 330.137317)"><g><path d="M 2.015625 -10.734375 L 3.46875 -10.734375 L 3.46875 0 L 2.015625 0 Z M 2.765625 -13.09375 C 2.460938 -13.09375 2.207031 -13.191406 2 -13.390625 C 1.800781 -13.597656 1.703125 -13.84375 1.703125 -14.125 C 1.703125 -14.40625 1.800781 -14.644531 2 -14.84375 C 2.207031 -15.050781 2.460938 -15.15625 2.765625 -15.15625 C 3.066406 -15.15625 3.316406 -15.054688 3.515625 -14.859375 C 3.722656 -14.660156 3.828125 -14.425781 3.828125 -14.15625 C 3.828125 -13.851562 3.722656 -13.597656 3.515625 -13.390625 C 3.316406 -13.191406 3.066406 -13.09375 2.765625 -13.09375 Z M 2.765625 -13.09375"/></g></g></g><g fill-opacity="1" fill="#000000"><g transform="translate(377.014888, 330.137317)"><g><path d="M 6.40625 0.109375 C 5.375 0.109375 4.441406 -0.125 3.609375 -0.59375 C 2.785156 -1.070312 2.132812 -1.722656 1.65625 -2.546875 C 1.175781 -3.378906 0.9375 -4.320312 0.9375 -5.375 C 0.9375 -6.414062 1.175781 -7.351562 1.65625 -8.1875 C 2.132812 -9.019531 2.785156 -9.664062 3.609375 -10.125 C 4.441406 -10.59375 5.375 -10.828125 6.40625 -10.828125 C 7.445312 -10.828125 8.378906 -10.59375 9.203125 -10.125 C 10.035156 -9.664062 10.6875 -9.019531 11.15625 -8.1875 C 11.625 -7.351562 11.859375 -6.414062 11.859375 -5.375 C 11.859375 -4.320312 11.625 -3.378906 11.15625 -2.546875 C 10.6875 -1.722656 10.035156 -1.070312 9.203125 -0.59375 C 8.378906 -0.125 7.445312 0.109375 6.40625 0.109375 Z M 6.40625 -1.1875 C 7.175781 -1.1875 7.863281 -1.359375 8.46875 -1.703125 C 9.070312 -2.046875 9.539062 -2.535156 9.875 -3.171875 C 10.21875 -3.816406 10.390625 -4.550781 10.390625 -5.375 C 10.390625 -6.1875 10.21875 -6.910156 9.875 -7.546875 C 9.539062 -8.191406 9.070312 -8.6875 8.46875 -9.03125 C 7.863281 -9.382812 7.175781 -9.5625 6.40625 -9.5625 C 5.644531 -9.5625 4.960938 -9.382812 4.359375 -9.03125 C 3.753906 -8.6875 3.273438 -8.191406 2.921875 -7.546875 C 2.578125 -6.910156 2.40625 -6.1875 2.40625 -5.375 C 2.40625 -4.550781 2.578125 -3.816406 2.921875 -3.171875 C 3.273438 -2.535156 3.753906 -2.046875 4.359375 -1.703125 C 4.960938 -1.359375 5.644531 -1.1875 6.40625 -1.1875 Z M 6.40625 -1.1875"/></g></g></g><g fill-opacity="1" fill="#000000"><g transform="translate(389.814532, 330.137317)"><g><path d="M 7.5 -10.828125 C 8.84375 -10.828125 9.910156 -10.429688 10.703125 -9.640625 C 11.503906 -8.859375 11.90625 -7.722656 11.90625 -6.234375 L 11.90625 0 L 10.453125 0 L 10.453125 -6.078125 C 10.453125 -7.203125 10.171875 -8.054688 9.609375 -8.640625 C 9.054688 -9.222656 8.265625 -9.515625 7.234375 -9.515625 C 6.078125 -9.515625 5.160156 -9.171875 4.484375 -8.484375 C 3.804688 -7.796875 3.46875 -6.847656 3.46875 -5.640625 L 3.46875 0 L 2.015625 0 L 2.015625 -10.734375 L 3.40625 -10.734375 L 3.40625 -8.765625 C 3.800781 -9.410156 4.347656 -9.914062 5.046875 -10.28125 C 5.753906 -10.644531 6.570312 -10.828125 7.5 -10.828125 Z M 7.5 -10.828125"/></g></g></g><g fill-opacity="1" fill="#000000"><g transform="translate(403.634886, 330.137317)"><g><path d="M 4.90625 0.109375 C 4.03125 0.109375 3.191406 -0.015625 2.390625 -0.265625 C 1.597656 -0.523438 0.976562 -0.84375 0.53125 -1.21875 L 1.1875 -2.375 C 1.632812 -2.019531 2.195312 -1.726562 2.875 -1.5 C 3.5625 -1.269531 4.269531 -1.15625 5 -1.15625 C 5.976562 -1.15625 6.703125 -1.304688 7.171875 -1.609375 C 7.648438 -1.921875 7.890625 -2.359375 7.890625 -2.921875 C 7.890625 -3.316406 7.757812 -3.625 7.5 -3.84375 C 7.238281 -4.070312 6.910156 -4.242188 6.515625 -4.359375 C 6.117188 -4.472656 5.59375 -4.585938 4.9375 -4.703125 C 4.070312 -4.859375 3.375 -5.019531 2.84375 -5.1875 C 2.3125 -5.363281 1.859375 -5.65625 1.484375 -6.0625 C 1.109375 -6.46875 0.921875 -7.035156 0.921875 -7.765625 C 0.921875 -8.660156 1.296875 -9.394531 2.046875 -9.96875 C 2.796875 -10.539062 3.835938 -10.828125 5.171875 -10.828125 C 5.859375 -10.828125 6.550781 -10.734375 7.25 -10.546875 C 7.945312 -10.359375 8.519531 -10.117188 8.96875 -9.828125 L 8.328125 -8.65625 C 7.441406 -9.269531 6.390625 -9.578125 5.171875 -9.578125 C 4.242188 -9.578125 3.546875 -9.410156 3.078125 -9.078125 C 2.609375 -8.753906 2.375 -8.328125 2.375 -7.796875 C 2.375 -7.390625 2.503906 -7.0625 2.765625 -6.8125 C 3.035156 -6.570312 3.363281 -6.394531 3.75 -6.28125 C 4.144531 -6.164062 4.691406 -6.046875 5.390625 -5.921875 C 6.242188 -5.753906 6.929688 -5.585938 7.453125 -5.421875 C 7.972656 -5.265625 8.414062 -4.988281 8.78125 -4.59375 C 9.144531 -4.195312 9.328125 -3.65625 9.328125 -2.96875 C 9.328125 -2.019531 8.9375 -1.269531 8.15625 -0.71875 C 7.375 -0.164062 6.289062 0.109375 4.90625 0.109375 Z M 4.90625 0.109375"/></g></g></g><g fill-opacity="1" fill="#000000"><g transform="translate(445.190429, 330.137317)"><g><path d="M 12.4375 -1.3125 L 12.4375 0 L 2.328125 0 L 2.328125 -14.296875 L 12.125 -14.296875 L 12.125 -12.984375 L 3.84375 -12.984375 L 3.84375 -7.90625 L 11.234375 -7.90625 L 11.234375 -6.609375 L 3.84375 -6.609375 L 3.84375 -1.3125 Z M 12.4375 -1.3125"/></g></g></g><g fill-opacity="1" fill="#000000"><g transform="translate(458.622908, 330.137317)"><g><path d="M 11.046875 -10.734375 L 6.265625 0 L 4.78125 0 L 0.015625 -10.734375 L 1.53125 -10.734375 L 5.5625 -1.59375 L 9.625 -10.734375 Z M 11.046875 -10.734375"/></g></g></g><g fill-opacity="1" fill="#000000"><g transform="translate(469.381132, 330.137317)"><g><path d="M 11.375 -4.921875 L 2.390625 -4.921875 C 2.472656 -3.804688 2.898438 -2.90625 3.671875 -2.21875 C 4.453125 -1.53125 5.429688 -1.1875 6.609375 -1.1875 C 7.285156 -1.1875 7.898438 -1.304688 8.453125 -1.546875 C 9.015625 -1.785156 9.5 -2.132812 9.90625 -2.59375 L 10.71875 -1.65625 C 10.238281 -1.082031 9.640625 -0.644531 8.921875 -0.34375 C 8.210938 -0.0390625 7.429688 0.109375 6.578125 0.109375 C 5.472656 0.109375 4.492188 -0.125 3.640625 -0.59375 C 2.796875 -1.070312 2.132812 -1.722656 1.65625 -2.546875 C 1.175781 -3.378906 0.9375 -4.320312 0.9375 -5.375 C 0.9375 -6.414062 1.164062 -7.351562 1.625 -8.1875 C 2.082031 -9.019531 2.707031 -9.664062 3.5 -10.125 C 4.300781 -10.59375 5.195312 -10.828125 6.1875 -10.828125 C 7.175781 -10.828125 8.066406 -10.59375 8.859375 -10.125 C 9.648438 -9.664062 10.269531 -9.023438 10.71875 -8.203125 C 11.164062 -7.378906 11.390625 -6.4375 11.390625 -5.375 Z M 6.1875 -9.578125 C 5.15625 -9.578125 4.285156 -9.242188 3.578125 -8.578125 C 2.878906 -7.921875 2.484375 -7.0625 2.390625 -6 L 10 -6 C 9.90625 -7.0625 9.507812 -7.921875 8.8125 -8.578125 C 8.113281 -9.242188 7.238281 -9.578125 6.1875 -9.578125 Z M 6.1875 -9.578125"/></g></g></g><g fill-opacity="1" fill="#000000"><g transform="translate(481.711259, 330.137317)"><g><path d="M 7.5 -10.828125 C 8.84375 -10.828125 9.910156 -10.429688 10.703125 -9.640625 C 11.503906 -8.859375 11.90625 -7.722656 11.90625 -6.234375 L 11.90625 0 L 10.453125 0 L 10.453125 -6.078125 C 10.453125 -7.203125 10.171875 -8.054688 9.609375 -8.640625 C 9.054688 -9.222656 8.265625 -9.515625 7.234375 -9.515625 C 6.078125 -9.515625 5.160156 -9.171875 4.484375 -8.484375 C 3.804688 -7.796875 3.46875 -6.847656 3.46875 -5.640625 L 3.46875 0 L 2.015625 0 L 2.015625 -10.734375 L 3.40625 -10.734375 L 3.40625 -8.765625 C 3.800781 -9.410156 4.347656 -9.914062 5.046875 -10.28125 C 5.753906 -10.644531 6.570312 -10.828125 7.5 -10.828125 Z M 7.5 -10.828125"/></g></g></g><g fill-opacity="1" fill="#000000"><g transform="translate(495.531613, 330.137317)"><g><path d="M 7.671875 -0.65625 C 7.398438 -0.40625 7.0625 -0.210938 6.65625 -0.078125 C 6.257812 0.046875 5.84375 0.109375 5.40625 0.109375 C 4.40625 0.109375 3.628906 -0.160156 3.078125 -0.703125 C 2.535156 -1.253906 2.265625 -2.023438 2.265625 -3.015625 L 2.265625 -9.515625 L 0.34375 -9.515625 L 0.34375 -10.734375 L 2.265625 -10.734375 L 2.265625 -13.09375 L 3.71875 -13.09375 L 3.71875 -10.734375 L 6.984375 -10.734375 L 6.984375 -9.515625 L 3.71875 -9.515625 L 3.71875 -3.109375 C 3.71875 -2.460938 3.875 -1.972656 4.1875 -1.640625 C 4.507812 -1.304688 4.972656 -1.140625 5.578125 -1.140625 C 5.878906 -1.140625 6.164062 -1.1875 6.4375 -1.28125 C 6.71875 -1.375 6.960938 -1.507812 7.171875 -1.6875 Z M 7.671875 -0.65625"/></g></g></g><g fill-opacity="1" fill="#000000"><g transform="translate(503.819744, 330.137317)"><g><path d="M 4.90625 0.109375 C 4.03125 0.109375 3.191406 -0.015625 2.390625 -0.265625 C 1.597656 -0.523438 0.976562 -0.84375 0.53125 -1.21875 L 1.1875 -2.375 C 1.632812 -2.019531 2.195312 -1.726562 2.875 -1.5 C 3.5625 -1.269531 4.269531 -1.15625 5 -1.15625 C 5.976562 -1.15625 6.703125 -1.304688 7.171875 -1.609375 C 7.648438 -1.921875 7.890625 -2.359375 7.890625 -2.921875 C 7.890625 -3.316406 7.757812 -3.625 7.5 -3.84375 C 7.238281 -4.070312 6.910156 -4.242188 6.515625 -4.359375 C 6.117188 -4.472656 5.59375 -4.585938 4.9375 -4.703125 C 4.070312 -4.859375 3.375 -5.019531 2.84375 -5.1875 C 2.3125 -5.363281 1.859375 -5.65625 1.484375 -6.0625 C 1.109375 -6.46875 0.921875 -7.035156 0.921875 -7.765625 C 0.921875 -8.660156 1.296875 -9.394531 2.046875 -9.96875 C 2.796875 -10.539062 3.835938 -10.828125 5.171875 -10.828125 C 5.859375 -10.828125 6.550781 -10.734375 7.25 -10.546875 C 7.945312 -10.359375 8.519531 -10.117188 8.96875 -9.828125 L 8.328125 -8.65625 C 7.441406 -9.269531 6.390625 -9.578125 5.171875 -9.578125 C 4.242188 -9.578125 3.546875 -9.410156 3.078125 -9.078125 C 2.609375 -8.753906 2.375 -8.328125 2.375 -7.796875 C 2.375 -7.390625 2.503906 -7.0625 2.765625 -6.8125 C 3.035156 -6.570312 3.363281 -6.394531 3.75 -6.28125 C 4.144531 -6.164062 4.691406 -6.046875 5.390625 -5.921875 C 6.242188 -5.753906 6.929688 -5.585938 7.453125 -5.421875 C 7.972656 -5.265625 8.414062 -4.988281 8.78125 -4.59375 C 9.144531 -4.195312 9.328125 -3.65625 9.328125 -2.96875 C 9.328125 -2.019531 8.9375 -1.269531 8.15625 -0.71875 C 7.375 -0.164062 6.289062 0.109375 4.90625 0.109375 Z M 4.90625 0.109375"/></g></g></g><g fill-opacity="1" fill="#286181"><g transform="translate(574.347983, 330.137317)"><g><path d="M 11.296875 -3.8125 L 3.328125 -3.8125 L 1.609375 0 L 0.046875 0 L 6.578125 -14.296875 L 8.0625 -14.296875 L 14.609375 0 L 13.015625 0 Z M 10.734375 -5.046875 L 7.3125 -12.71875 L 3.875 -5.046875 Z M 10.734375 -5.046875"/></g></g></g><g fill-opacity="1" fill="#286181"><g transform="translate(588.882837, 330.137317)"><g><path d="M 6.46875 0.109375 C 5.40625 0.109375 4.457031 -0.117188 3.625 -0.578125 C 2.789062 -1.046875 2.132812 -1.695312 1.65625 -2.53125 C 1.175781 -3.375 0.9375 -4.320312 0.9375 -5.375 C 0.9375 -6.414062 1.175781 -7.351562 1.65625 -8.1875 C 2.132812 -9.019531 2.789062 -9.664062 3.625 -10.125 C 4.457031 -10.59375 5.40625 -10.828125 6.46875 -10.828125 C 7.394531 -10.828125 8.222656 -10.644531 8.953125 -10.28125 C 9.679688 -9.914062 10.257812 -9.390625 10.6875 -8.703125 L 9.59375 -7.96875 C 9.238281 -8.5 8.789062 -8.894531 8.25 -9.15625 C 7.707031 -9.425781 7.113281 -9.5625 6.46875 -9.5625 C 5.695312 -9.5625 5 -9.382812 4.375 -9.03125 C 3.757812 -8.6875 3.273438 -8.191406 2.921875 -7.546875 C 2.578125 -6.910156 2.40625 -6.1875 2.40625 -5.375 C 2.40625 -4.539062 2.578125 -3.804688 2.921875 -3.171875 C 3.273438 -2.535156 3.757812 -2.046875 4.375 -1.703125 C 5 -1.359375 5.695312 -1.1875 6.46875 -1.1875 C 7.113281 -1.1875 7.707031 -1.3125 8.25 -1.5625 C 8.789062 -1.820312 9.238281 -2.21875 9.59375 -2.75 L 10.6875 -2.015625 C 10.257812 -1.328125 9.675781 -0.800781 8.9375 -0.4375 C 8.207031 -0.0703125 7.382812 0.109375 6.46875 0.109375 Z M 6.46875 0.109375"/></g></g></g><g fill-opacity="1" fill="#286181"><g transform="translate(600.498464, 330.137317)"><g><path d="M 7.671875 -0.65625 C 7.398438 -0.40625 7.0625 -0.210938 6.65625 -0.078125 C 6.257812 0.046875 5.84375 0.109375 5.40625 0.109375 C 4.40625 0.109375 3.628906 -0.160156 3.078125 -0.703125 C 2.535156 -1.253906 2.265625 -2.023438 2.265625 -3.015625 L 2.265625 -9.515625 L 0.34375 -9.515625 L 0.34375 -10.734375 L 2.265625 -10.734375 L 2.265625 -13.09375 L 3.71875 -13.09375 L 3.71875 -10.734375 L 6.984375 -10.734375 L 6.984375 -9.515625 L 3.71875 -9.515625 L 3.71875 -3.109375 C 3.71875 -2.460938 3.875 -1.972656 4.1875 -1.640625 C 4.507812 -1.304688 4.972656 -1.140625 5.578125 -1.140625 C 5.878906 -1.140625 6.164062 -1.1875 6.4375 -1.28125 C 6.71875 -1.375 6.960938 -1.507812 7.171875 -1.6875 Z M 7.671875 -0.65625"/></g></g></g><g fill-opacity="1" fill="#286181"><g transform="translate(608.786595, 330.137317)"><g><path d="M 2.015625 -10.734375 L 3.46875 -10.734375 L 3.46875 0 L 2.015625 0 Z M 2.765625 -13.09375 C 2.460938 -13.09375 2.207031 -13.191406 2 -13.390625 C 1.800781 -13.597656 1.703125 -13.84375 1.703125 -14.125 C 1.703125 -14.40625 1.800781 -14.644531 2 -14.84375 C 2.207031 -15.050781 2.460938 -15.15625 2.765625 -15.15625 C 3.066406 -15.15625 3.316406 -15.054688 3.515625 -14.859375 C 3.722656 -14.660156 3.828125 -14.425781 3.828125 -14.15625 C 3.828125 -13.851562 3.722656 -13.597656 3.515625 -13.390625 C 3.316406 -13.191406 3.066406 -13.09375 2.765625 -13.09375 Z M 2.765625 -13.09375"/></g></g></g><g fill-opacity="1" fill="#286181"><g transform="translate(614.277997, 330.137317)"><g><path d="M 6.40625 0.109375 C 5.375 0.109375 4.441406 -0.125 3.609375 -0.59375 C 2.785156 -1.070312 2.132812 -1.722656 1.65625 -2.546875 C 1.175781 -3.378906 0.9375 -4.320312 0.9375 -5.375 C 0.9375 -6.414062 1.175781 -7.351562 1.65625 -8.1875 C 2.132812 -9.019531 2.785156 -9.664062 3.609375 -10.125 C 4.441406 -10.59375 5.375 -10.828125 6.40625 -10.828125 C 7.445312 -10.828125 8.378906 -10.59375 9.203125 -10.125 C 10.035156 -9.664062 10.6875 -9.019531 11.15625 -8.1875 C 11.625 -7.351562 11.859375 -6.414062 11.859375 -5.375 C 11.859375 -4.320312 11.625 -3.378906 11.15625 -2.546875 C 10.6875 -1.722656 10.035156 -1.070312 9.203125 -0.59375 C 8.378906 -0.125 7.445312 0.109375 6.40625 0.109375 Z M 6.40625 -1.1875 C 7.175781 -1.1875 7.863281 -1.359375 8.46875 -1.703125 C 9.070312 -2.046875 9.539062 -2.535156 9.875 -3.171875 C 10.21875 -3.816406 10.390625 -4.550781 10.390625 -5.375 C 10.390625 -6.1875 10.21875 -6.910156 9.875 -7.546875 C 9.539062 -8.191406 9.070312 -8.6875 8.46875 -9.03125 C 7.863281 -9.382812 7.175781 -9.5625 6.40625 -9.5625 C 5.644531 -9.5625 4.960938 -9.382812 4.359375 -9.03125 C 3.753906 -8.6875 3.273438 -8.191406 2.921875 -7.546875 C 2.578125 -6.910156 2.40625 -6.1875 2.40625 -5.375 C 2.40625 -4.550781 2.578125 -3.816406 2.921875 -3.171875 C 3.273438 -2.535156 3.753906 -2.046875 4.359375 -1.703125 C 4.960938 -1.359375 5.644531 -1.1875 6.40625 -1.1875 Z M 6.40625 -1.1875"/></g></g></g><g fill-opacity="1" fill="#286181"><g transform="translate(627.077641, 330.137317)"><g><path d="M 7.5 -10.828125 C 8.84375 -10.828125 9.910156 -10.429688 10.703125 -9.640625 C 11.503906 -8.859375 11.90625 -7.722656 11.90625 -6.234375 L 11.90625 0 L 10.453125 0 L 10.453125 -6.078125 C 10.453125 -7.203125 10.171875 -8.054688 9.609375 -8.640625 C 9.054688 -9.222656 8.265625 -9.515625 7.234375 -9.515625 C 6.078125 -9.515625 5.160156 -9.171875 4.484375 -8.484375 C 3.804688 -7.796875 3.46875 -6.847656 3.46875 -5.640625 L 3.46875 0 L 2.015625 0 L 2.015625 -10.734375 L 3.40625 -10.734375 L 3.40625 -8.765625 C 3.800781 -9.410156 4.347656 -9.914062 5.046875 -10.28125 C 5.753906 -10.644531 6.570312 -10.828125 7.5 -10.828125 Z M 7.5 -10.828125"/></g></g></g><g fill-opacity="1" fill="#286181"><g transform="translate(640.897994, 330.137317)"><g><path d="M 5.78125 -10.828125 C 7.1875 -10.828125 8.257812 -10.472656 9 -9.765625 C 9.75 -9.066406 10.125 -8.03125 10.125 -6.65625 L 10.125 0 L 8.734375 0 L 8.734375 -1.671875 C 8.410156 -1.117188 7.929688 -0.679688 7.296875 -0.359375 C 6.660156 -0.046875 5.910156 0.109375 5.046875 0.109375 C 3.847656 0.109375 2.894531 -0.175781 2.1875 -0.75 C 1.476562 -1.320312 1.125 -2.078125 1.125 -3.015625 C 1.125 -3.929688 1.453125 -4.664062 2.109375 -5.21875 C 2.773438 -5.78125 3.828125 -6.0625 5.265625 -6.0625 L 8.671875 -6.0625 L 8.671875 -6.71875 C 8.671875 -7.644531 8.410156 -8.347656 7.890625 -8.828125 C 7.378906 -9.316406 6.628906 -9.5625 5.640625 -9.5625 C 4.953125 -9.5625 4.296875 -9.445312 3.671875 -9.21875 C 3.046875 -9 2.507812 -8.691406 2.0625 -8.296875 L 1.40625 -9.375 C 1.945312 -9.832031 2.597656 -10.1875 3.359375 -10.4375 C 4.128906 -10.695312 4.9375 -10.828125 5.78125 -10.828125 Z M 5.265625 -1.046875 C 6.085938 -1.046875 6.789062 -1.234375 7.375 -1.609375 C 7.957031 -1.984375 8.390625 -2.523438 8.671875 -3.234375 L 8.671875 -4.984375 L 5.3125 -4.984375 C 3.46875 -4.984375 2.546875 -4.34375 2.546875 -3.0625 C 2.546875 -2.4375 2.785156 -1.941406 3.265625 -1.578125 C 3.742188 -1.222656 4.410156 -1.046875 5.265625 -1.046875 Z M 5.265625 -1.046875"/></g></g></g><g fill-opacity="1" fill="#286181"><g transform="translate(652.942317, 330.137317)"><g><path d="M 7.5625 -10.828125 C 8.5625 -10.828125 9.46875 -10.597656 10.28125 -10.140625 C 11.101562 -9.679688 11.742188 -9.035156 12.203125 -8.203125 C 12.671875 -7.378906 12.90625 -6.4375 12.90625 -5.375 C 12.90625 -4.3125 12.671875 -3.363281 12.203125 -2.53125 C 11.742188 -1.695312 11.101562 -1.046875 10.28125 -0.578125 C 9.46875 -0.117188 8.5625 0.109375 7.5625 0.109375 C 6.65625 0.109375 5.84375 -0.0820312 5.125 -0.46875 C 4.414062 -0.851562 3.84375 -1.40625 3.40625 -2.125 L 3.40625 0 L 2.015625 0 L 2.015625 -15.15625 L 3.46875 -15.15625 L 3.46875 -8.703125 C 3.914062 -9.390625 4.488281 -9.914062 5.1875 -10.28125 C 5.894531 -10.644531 6.6875 -10.828125 7.5625 -10.828125 Z M 7.453125 -1.1875 C 8.203125 -1.1875 8.882812 -1.359375 9.5 -1.703125 C 10.113281 -2.046875 10.59375 -2.535156 10.9375 -3.171875 C 11.28125 -3.816406 11.453125 -4.550781 11.453125 -5.375 C 11.453125 -6.1875 11.28125 -6.910156 10.9375 -7.546875 C 10.59375 -8.191406 10.113281 -8.6875 9.5 -9.03125 C 8.882812 -9.382812 8.203125 -9.5625 7.453125 -9.5625 C 6.691406 -9.5625 6.007812 -9.382812 5.40625 -9.03125 C 4.800781 -8.6875 4.320312 -8.191406 3.96875 -7.546875 C 3.625 -6.910156 3.453125 -6.1875 3.453125 -5.375 C 3.453125 -4.550781 3.625 -3.816406 3.96875 -3.171875 C 4.320312 -2.535156 4.800781 -2.046875 5.40625 -1.703125 C 6.007812 -1.359375 6.691406 -1.1875 7.453125 -1.1875 Z M 7.453125 -1.1875"/></g></g></g><g fill-opacity="1" fill="#286181"><g transform="translate(666.783087, 330.137317)"><g><path d="M 2.015625 -15.15625 L 3.46875 -15.15625 L 3.46875 0 L 2.015625 0 Z M 2.015625 -15.15625"/></g></g></g><g fill-opacity="1" fill="#286181"><g transform="translate(672.274488, 330.137317)"><g><path d="M 11.375 -4.921875 L 2.390625 -4.921875 C 2.472656 -3.804688 2.898438 -2.90625 3.671875 -2.21875 C 4.453125 -1.53125 5.429688 -1.1875 6.609375 -1.1875 C 7.285156 -1.1875 7.898438 -1.304688 8.453125 -1.546875 C 9.015625 -1.785156 9.5 -2.132812 9.90625 -2.59375 L 10.71875 -1.65625 C 10.238281 -1.082031 9.640625 -0.644531 8.921875 -0.34375 C 8.210938 -0.0390625 7.429688 0.109375 6.578125 0.109375 C 5.472656 0.109375 4.492188 -0.125 3.640625 -0.59375 C 2.796875 -1.070312 2.132812 -1.722656 1.65625 -2.546875 C 1.175781 -3.378906 0.9375 -4.320312 0.9375 -5.375 C 0.9375 -6.414062 1.164062 -7.351562 1.625 -8.1875 C 2.082031 -9.019531 2.707031 -9.664062 3.5 -10.125 C 4.300781 -10.59375 5.195312 -10.828125 6.1875 -10.828125 C 7.175781 -10.828125 8.066406 -10.59375 8.859375 -10.125 C 9.648438 -9.664062 10.269531 -9.023438 10.71875 -8.203125 C 11.164062 -7.378906 11.390625 -6.4375 11.390625 -5.375 Z M 6.1875 -9.578125 C 5.15625 -9.578125 4.285156 -9.242188 3.578125 -8.578125 C 2.878906 -7.921875 2.484375 -7.0625 2.390625 -6 L 10 -6 C 9.90625 -7.0625 9.507812 -7.921875 8.8125 -8.578125 C 8.113281 -9.242188 7.238281 -9.578125 6.1875 -9.578125 Z M 6.1875 -9.578125"/></g></g></g><g fill-opacity="1" fill="#286181"><g transform="translate(684.604615, 330.137317)"><g/></g></g><g fill-opacity="1" fill="#286181"><g transform="translate(689.953114, 330.137317)"><g><path d="M 2.328125 -14.296875 L 3.84375 -14.296875 L 3.84375 0 L 2.328125 0 Z M 2.328125 -14.296875"/></g></g></g><g fill-opacity="1" fill="#286181"><g transform="translate(696.118172, 330.137317)"><g><path d="M 7.5 -10.828125 C 8.84375 -10.828125 9.910156 -10.429688 10.703125 -9.640625 C 11.503906 -8.859375 11.90625 -7.722656 11.90625 -6.234375 L 11.90625 0 L 10.453125 0 L 10.453125 -6.078125 C 10.453125 -7.203125 10.171875 -8.054688 9.609375 -8.640625 C 9.054688 -9.222656 8.265625 -9.515625 7.234375 -9.515625 C 6.078125 -9.515625 5.160156 -9.171875 4.484375 -8.484375 C 3.804688 -7.796875 3.46875 -6.847656 3.46875 -5.640625 L 3.46875 0 L 2.015625 0 L 2.015625 -10.734375 L 3.40625 -10.734375 L 3.40625 -8.765625 C 3.800781 -9.410156 4.347656 -9.914062 5.046875 -10.28125 C 5.753906 -10.644531 6.570312 -10.828125 7.5 -10.828125 Z M 7.5 -10.828125"/></g></g></g><g fill-opacity="1" fill="#286181"><g transform="translate(709.938526, 330.137317)"><g><path d="M 4.90625 0.109375 C 4.03125 0.109375 3.191406 -0.015625 2.390625 -0.265625 C 1.597656 -0.523438 0.976562 -0.84375 0.53125 -1.21875 L 1.1875 -2.375 C 1.632812 -2.019531 2.195312 -1.726562 2.875 -1.5 C 3.5625 -1.269531 4.269531 -1.15625 5 -1.15625 C 5.976562 -1.15625 6.703125 -1.304688 7.171875 -1.609375 C 7.648438 -1.921875 7.890625 -2.359375 7.890625 -2.921875 C 7.890625 -3.316406 7.757812 -3.625 7.5 -3.84375 C 7.238281 -4.070312 6.910156 -4.242188 6.515625 -4.359375 C 6.117188 -4.472656 5.59375 -4.585938 4.9375 -4.703125 C 4.070312 -4.859375 3.375 -5.019531 2.84375 -5.1875 C 2.3125 -5.363281 1.859375 -5.65625 1.484375 -6.0625 C 1.109375 -6.46875 0.921875 -7.035156 0.921875 -7.765625 C 0.921875 -8.660156 1.296875 -9.394531 2.046875 -9.96875 C 2.796875 -10.539062 3.835938 -10.828125 5.171875 -10.828125 C 5.859375 -10.828125 6.550781 -10.734375 7.25 -10.546875 C 7.945312 -10.359375 8.519531 -10.117188 8.96875 -9.828125 L 8.328125 -8.65625 C 7.441406 -9.269531 6.390625 -9.578125 5.171875 -9.578125 C 4.242188 -9.578125 3.546875 -9.410156 3.078125 -9.078125 C 2.609375 -8.753906 2.375 -8.328125 2.375 -7.796875 C 2.375 -7.390625 2.503906 -7.0625 2.765625 -6.8125 C 3.035156 -6.570312 3.363281 -6.394531 3.75 -6.28125 C 4.144531 -6.164062 4.691406 -6.046875 5.390625 -5.921875 C 6.242188 -5.753906 6.929688 -5.585938 7.453125 -5.421875 C 7.972656 -5.265625 8.414062 -4.988281 8.78125 -4.59375 C 9.144531 -4.195312 9.328125 -3.65625 9.328125 -2.96875 C 9.328125 -2.019531 8.9375 -1.269531 8.15625 -0.71875 C 7.375 -0.164062 6.289062 0.109375 4.90625 0.109375 Z M 4.90625 0.109375"/></g></g></g><g fill-opacity="1" fill="#286181"><g transform="translate(719.921023, 330.137317)"><g><path d="M 2.015625 -10.734375 L 3.46875 -10.734375 L 3.46875 0 L 2.015625 0 Z M 2.765625 -13.09375 C 2.460938 -13.09375 2.207031 -13.191406 2 -13.390625 C 1.800781 -13.597656 1.703125 -13.84375 1.703125 -14.125 C 1.703125 -14.40625 1.800781 -14.644531 2 -14.84375 C 2.207031 -15.050781 2.460938 -15.15625 2.765625 -15.15625 C 3.066406 -15.15625 3.316406 -15.054688 3.515625 -14.859375 C 3.722656 -14.660156 3.828125 -14.425781 3.828125 -14.15625 C 3.828125 -13.851562 3.722656 -13.597656 3.515625 -13.390625 C 3.316406 -13.191406 3.066406 -13.09375 2.765625 -13.09375 Z M 2.765625 -13.09375"/></g></g></g><g fill-opacity="1" fill="#286181"><g transform="translate(725.412425, 330.137317)"><g><path d="M 11.96875 -10.734375 L 11.96875 -1.3125 C 11.96875 0.507812 11.519531 1.859375 10.625 2.734375 C 9.738281 3.617188 8.394531 4.0625 6.59375 4.0625 C 5.601562 4.0625 4.660156 3.914062 3.765625 3.625 C 2.878906 3.332031 2.15625 2.925781 1.59375 2.40625 L 2.328125 1.3125 C 2.847656 1.769531 3.476562 2.128906 4.21875 2.390625 C 4.957031 2.648438 5.738281 2.78125 6.5625 2.78125 C 7.914062 2.78125 8.910156 2.460938 9.546875 1.828125 C 10.191406 1.191406 10.515625 0.207031 10.515625 -1.125 L 10.515625 -2.484375 C 10.066406 -1.804688 9.476562 -1.289062 8.75 -0.9375 C 8.019531 -0.582031 7.210938 -0.40625 6.328125 -0.40625 C 5.316406 -0.40625 4.398438 -0.625 3.578125 -1.0625 C 2.753906 -1.507812 2.109375 -2.128906 1.640625 -2.921875 C 1.171875 -3.722656 0.9375 -4.628906 0.9375 -5.640625 C 0.9375 -6.640625 1.171875 -7.535156 1.640625 -8.328125 C 2.109375 -9.117188 2.75 -9.734375 3.5625 -10.171875 C 4.382812 -10.609375 5.304688 -10.828125 6.328125 -10.828125 C 7.242188 -10.828125 8.066406 -10.640625 8.796875 -10.265625 C 9.535156 -9.898438 10.128906 -9.367188 10.578125 -8.671875 L 10.578125 -10.734375 Z M 6.46875 -1.6875 C 7.25 -1.6875 7.953125 -1.851562 8.578125 -2.1875 C 9.203125 -2.53125 9.6875 -3 10.03125 -3.59375 C 10.382812 -4.195312 10.5625 -4.878906 10.5625 -5.640625 C 10.5625 -6.398438 10.382812 -7.078125 10.03125 -7.671875 C 9.6875 -8.265625 9.203125 -8.726562 8.578125 -9.0625 C 7.960938 -9.394531 7.257812 -9.5625 6.46875 -9.5625 C 5.695312 -9.5625 5 -9.394531 4.375 -9.0625 C 3.757812 -8.738281 3.273438 -8.273438 2.921875 -7.671875 C 2.578125 -7.078125 2.40625 -6.398438 2.40625 -5.640625 C 2.40625 -4.878906 2.578125 -4.195312 2.921875 -3.59375 C 3.273438 -3 3.757812 -2.53125 4.375 -2.1875 C 5 -1.851562 5.695312 -1.6875 6.46875 -1.6875 Z M 6.46875 -1.6875"/></g></g></g><g fill-opacity="1" fill="#286181"><g transform="translate(739.416502, 330.137317)"><g><path d="M 7.5 -10.828125 C 8.84375 -10.828125 9.910156 -10.429688 10.703125 -9.640625 C 11.503906 -8.859375 11.90625 -7.722656 11.90625 -6.234375 L 11.90625 0 L 10.453125 0 L 10.453125 -6.078125 C 10.453125 -7.203125 10.171875 -8.054688 9.609375 -8.640625 C 9.054688 -9.222656 8.265625 -9.515625 7.234375 -9.515625 C 6.078125 -9.515625 5.160156 -9.171875 4.484375 -8.484375 C 3.804688 -7.796875 3.46875 -6.847656 3.46875 -5.640625 L 3.46875 0 L 2.015625 0 L 2.015625 -15.15625 L 3.46875 -15.15625 L 3.46875 -8.859375 C 3.863281 -9.484375 4.40625 -9.96875 5.09375 -10.3125 C 5.789062 -10.65625 6.59375 -10.828125 7.5 -10.828125 Z M 7.5 -10.828125"/></g></g></g><g fill-opacity="1" fill="#286181"><g transform="translate(753.236856, 330.137317)"><g><path d="M 7.671875 -0.65625 C 7.398438 -0.40625 7.0625 -0.210938 6.65625 -0.078125 C 6.257812 0.046875 5.84375 0.109375 5.40625 0.109375 C 4.40625 0.109375 3.628906 -0.160156 3.078125 -0.703125 C 2.535156 -1.253906 2.265625 -2.023438 2.265625 -3.015625 L 2.265625 -9.515625 L 0.34375 -9.515625 L 0.34375 -10.734375 L 2.265625 -10.734375 L 2.265625 -13.09375 L 3.71875 -13.09375 L 3.71875 -10.734375 L 6.984375 -10.734375 L 6.984375 -9.515625 L 3.71875 -9.515625 L 3.71875 -3.109375 C 3.71875 -2.460938 3.875 -1.972656 4.1875 -1.640625 C 4.507812 -1.304688 4.972656 -1.140625 5.578125 -1.140625 C 5.878906 -1.140625 6.164062 -1.1875 6.4375 -1.28125 C 6.71875 -1.375 6.960938 -1.507812 7.171875 -1.6875 Z M 7.671875 -0.65625"/></g></g></g><g fill-opacity="1" fill="#286181"><g transform="translate(761.524987, 330.137317)"><g><path d="M 4.90625 0.109375 C 4.03125 0.109375 3.191406 -0.015625 2.390625 -0.265625 C 1.597656 -0.523438 0.976562 -0.84375 0.53125 -1.21875 L 1.1875 -2.375 C 1.632812 -2.019531 2.195312 -1.726562 2.875 -1.5 C 3.5625 -1.269531 4.269531 -1.15625 5 -1.15625 C 5.976562 -1.15625 6.703125 -1.304688 7.171875 -1.609375 C 7.648438 -1.921875 7.890625 -2.359375 7.890625 -2.921875 C 7.890625 -3.316406 7.757812 -3.625 7.5 -3.84375 C 7.238281 -4.070312 6.910156 -4.242188 6.515625 -4.359375 C 6.117188 -4.472656 5.59375 -4.585938 4.9375 -4.703125 C 4.070312 -4.859375 3.375 -5.019531 2.84375 -5.1875 C 2.3125 -5.363281 1.859375 -5.65625 1.484375 -6.0625 C 1.109375 -6.46875 0.921875 -7.035156 0.921875 -7.765625 C 0.921875 -8.660156 1.296875 -9.394531 2.046875 -9.96875 C 2.796875 -10.539062 3.835938 -10.828125 5.171875 -10.828125 C 5.859375 -10.828125 6.550781 -10.734375 7.25 -10.546875 C 7.945312 -10.359375 8.519531 -10.117188 8.96875 -9.828125 L 8.328125 -8.65625 C 7.441406 -9.269531 6.390625 -9.578125 5.171875 -9.578125 C 4.242188 -9.578125 3.546875 -9.410156 3.078125 -9.078125 C 2.609375 -8.753906 2.375 -8.328125 2.375 -7.796875 C 2.375 -7.390625 2.503906 -7.0625 2.765625 -6.8125 C 3.035156 -6.570312 3.363281 -6.394531 3.75 -6.28125 C 4.144531 -6.164062 4.691406 -6.046875 5.390625 -5.921875 C 6.242188 -5.753906 6.929688 -5.585938 7.453125 -5.421875 C 7.972656 -5.265625 8.414062 -4.988281 8.78125 -4.59375 C 9.144531 -4.195312 9.328125 -3.65625 9.328125 -2.96875 C 9.328125 -2.019531 8.9375 -1.269531 8.15625 -0.71875 C 7.375 -0.164062 6.289062 0.109375 4.90625 0.109375 Z M 4.90625 0.109375"/></g></g></g></svg>