<svg xmlns="http://www.w3.org/2000/svg" xmlns:xlink="http://www.w3.org/1999/xlink" width="1080" zoomAndPan="magnify" viewBox="0 0 810 374.999991" height="500" preserveAspectRatio="xMidYMid meet" version="1.0"><defs><g/></defs><path fill="#ebe9db" d="M 124.460938 78.574219 C 183.769531 78.574219 231.84375 126.652344 231.84375 185.957031 L 231.84375 186.878906 C 231.84375 246.183594 183.769531 294.257812 124.460938 294.257812 C 65.15625 294.257812 17.082031 246.183594 17.082031 186.878906 L 17.082031 185.957031 C 17.082031 126.652344 65.15625 78.574219 124.460938 78.574219 Z M 124.460938 78.574219 " fill-opacity="1" fill-rule="nonzero"/><g fill="#373434" fill-opacity="1"><g transform="translate(17.080984, 248.619463)"><g><path d="M 169.359375 -129.171875 L 210.21875 -129.171875 L 173.890625 0 L 120.3125 0 L 108.515625 -40.40625 L 96.9375 0 L 43.140625 0 L 11.578125 -113.28125 C 9.765625 -118.882812 8.328125 -122.894531 7.265625 -125.3125 C 6.203125 -127.726562 5.296875 -129.015625 4.546875 -129.171875 L 63.34375 -129.171875 C 62.582031 -129.015625 62.160156 -128.03125 62.078125 -126.21875 C 62.003906 -124.40625 62.648438 -121.078125 64.015625 -116.234375 L 96.484375 -1.140625 L 108.0625 -41.765625 L 88.53125 -113.28125 C 86.863281 -118.882812 85.5 -122.894531 84.4375 -125.3125 C 83.382812 -127.726562 82.476562 -129.015625 81.71875 -129.171875 L 140.515625 -129.171875 C 139.765625 -129.015625 139.347656 -128.03125 139.265625 -126.21875 C 139.191406 -124.40625 139.835938 -121.078125 141.203125 -116.234375 L 173.4375 -1.140625 L 193.875 -75.828125 C 195.988281 -82.941406 196.25 -89.898438 194.65625 -96.703125 C 193.070312 -103.515625 190.082031 -109.71875 185.6875 -115.3125 C 181.300781 -120.914062 175.859375 -125.535156 169.359375 -129.171875 Z M 169.359375 -129.171875 "/></g></g></g><g fill="#373434" fill-opacity="1"><g transform="translate(231.844406, 248.619463)"><g/></g></g><g fill="#373434" fill-opacity="1"><g transform="translate(219.579166, 250.87166)"><g><path d="M 60.109375 0 C 60.585938 -0.195312 60.851562 -0.875 60.90625 -2.03125 C 60.957031 -3.195312 60.546875 -5.28125 59.671875 -8.28125 L 49.359375 -43.703125 L 16.109375 -43.703125 L 13.359375 -34.125 C 12.097656 -29.570312 11.953125 -25.117188 12.921875 -20.765625 C 13.890625 -16.410156 15.773438 -12.441406 18.578125 -8.859375 C 21.390625 -5.273438 24.828125 -2.320312 28.890625 0 L 2.90625 0 L 32.375 -101.625 C 32.570312 -101.53125 33.367188 -101.046875 34.765625 -100.171875 C 36.171875 -99.304688 38.273438 -98.554688 41.078125 -97.921875 C 43.890625 -97.296875 47.425781 -97.175781 51.6875 -97.5625 C 54.488281 -97.851562 57.242188 -98.429688 59.953125 -99.296875 C 62.671875 -100.171875 64.945312 -100.945312 66.78125 -101.625 L 93.359375 -10.015625 C 94.421875 -6.429688 95.289062 -3.914062 95.96875 -2.46875 C 96.644531 -1.019531 97.226562 -0.195312 97.71875 0 Z M 16.265625 -44.28125 L 49.21875 -44.28125 L 32.671875 -100.90625 Z M 16.265625 -44.28125 "/></g></g></g><g fill="#373434" fill-opacity="1"><g transform="translate(332.533714, 250.87166)"><g><path d="M 51.6875 -101.625 C 57.394531 -101.625 62.71875 -100.5625 67.65625 -98.4375 C 72.59375 -96.3125 76.945312 -93.359375 80.71875 -89.578125 C 84.5 -85.804688 87.453125 -81.425781 89.578125 -76.4375 C 91.710938 -71.457031 92.78125 -66.109375 92.78125 -60.390625 L 92.78125 -41.234375 C 92.78125 -35.523438 91.710938 -30.175781 89.578125 -25.1875 C 87.453125 -20.207031 84.5 -15.828125 80.71875 -12.046875 C 76.945312 -8.273438 72.59375 -5.320312 67.65625 -3.1875 C 62.71875 -1.0625 57.394531 0 51.6875 0 L 2.90625 0 C 3.675781 -0.675781 4.300781 -1.910156 4.78125 -3.703125 C 5.269531 -5.492188 5.515625 -8.273438 5.515625 -12.046875 L 5.515625 -89.578125 C 5.515625 -93.359375 5.269531 -96.140625 4.78125 -97.921875 C 4.300781 -99.710938 3.675781 -100.945312 2.90625 -101.625 Z M 59.96875 -22.21875 L 59.96875 -83.046875 C 59.96875 -86.429688 59.144531 -89.476562 57.5 -92.1875 C 55.851562 -94.90625 53.671875 -97.085938 50.953125 -98.734375 C 48.242188 -100.378906 45.195312 -101.203125 41.8125 -101.203125 L 38.328125 -101.203125 L 38.328125 -0.4375 C 44.328125 -0.4375 49.457031 -2.566406 53.71875 -6.828125 C 57.882812 -10.984375 59.96875 -16.113281 59.96875 -22.21875 Z M 59.96875 -22.21875 "/></g></g></g><g fill="#373434" fill-opacity="1"><g transform="translate(437.357869, 250.87166)"><g><path d="M 39.34375 -0.4375 C 48.632812 -0.4375 57.296875 -2.78125 65.328125 -7.46875 C 73.367188 -12.164062 79.660156 -18.582031 84.203125 -26.71875 L 82.171875 0 L 2.90625 0 C 3.675781 -0.675781 4.300781 -1.910156 4.78125 -3.703125 C 5.269531 -5.492188 5.515625 -8.273438 5.515625 -12.046875 L 5.515625 -89.578125 C 5.515625 -93.359375 5.269531 -96.140625 4.78125 -97.921875 C 4.300781 -99.710938 3.675781 -100.945312 2.90625 -101.625 L 82.171875 -101.625 L 84.203125 -74.921875 C 79.660156 -83.046875 73.367188 -89.457031 65.328125 -94.15625 C 57.296875 -98.851562 48.632812 -101.203125 39.34375 -101.203125 L 38.328125 -101.203125 L 38.328125 -51.109375 C 38.710938 -51.109375 39.875 -51.15625 41.8125 -51.25 C 43.75 -51.34375 46.097656 -51.628906 48.859375 -52.109375 C 51.617188 -52.597656 54.472656 -53.347656 57.421875 -54.359375 C 60.367188 -55.378906 63.078125 -56.8125 65.546875 -58.65625 C 68.015625 -60.5 69.878906 -62.867188 71.140625 -65.765625 L 71.140625 -35.859375 C 69.878906 -38.765625 68.015625 -41.132812 65.546875 -42.96875 C 63.078125 -44.8125 60.367188 -46.238281 57.421875 -47.25 C 54.472656 -48.269531 51.617188 -49.019531 48.859375 -49.5 C 46.097656 -49.988281 43.75 -50.28125 41.8125 -50.375 C 39.875 -50.476562 38.710938 -50.53125 38.328125 -50.53125 L 38.328125 -0.4375 Z M 39.34375 -0.4375 "/></g></g></g><g fill="#286181" fill-opacity="1"><g transform="translate(556.513269, 253.501523)"><g><path d="M 77.484375 0 C 78.109375 -0.25 78.453125 -1.117188 78.515625 -2.609375 C 78.578125 -4.109375 78.046875 -6.796875 76.921875 -10.671875 L 63.640625 -56.328125 L 20.78125 -56.328125 L 17.21875 -43.984375 C 15.59375 -38.117188 15.40625 -32.378906 16.65625 -26.765625 C 17.90625 -21.148438 20.335938 -16.03125 23.953125 -11.40625 C 27.578125 -6.789062 32.007812 -2.988281 37.25 0 L 3.75 0 L 41.734375 -131.015625 C 41.984375 -130.890625 43.007812 -130.265625 44.8125 -129.140625 C 46.625 -128.015625 49.335938 -127.046875 52.953125 -126.234375 C 56.578125 -125.421875 61.132812 -125.265625 66.625 -125.765625 C 70.25 -126.140625 73.804688 -126.890625 77.296875 -128.015625 C 80.785156 -129.140625 83.71875 -130.140625 86.09375 -131.015625 L 120.34375 -12.90625 C 121.71875 -8.289062 122.835938 -5.046875 123.703125 -3.171875 C 124.578125 -1.304688 125.328125 -0.25 125.953125 0 Z M 20.96875 -57.078125 L 63.453125 -57.078125 L 42.109375 -130.078125 Z M 20.96875 -57.078125 "/></g></g></g><g fill="#286181" fill-opacity="1"><g transform="translate(702.124965, 253.501523)"><g><path d="M 3.75 0 C 4.738281 -0.875 5.546875 -2.460938 6.171875 -4.765625 C 6.796875 -7.078125 7.109375 -10.664062 7.109375 -15.53125 L 7.109375 -115.46875 C 7.109375 -120.34375 6.796875 -123.929688 6.171875 -126.234375 C 5.546875 -128.546875 4.738281 -130.140625 3.75 -131.015625 L 52.78125 -131.015625 C 51.65625 -130.140625 50.8125 -128.546875 50.25 -126.234375 C 49.6875 -123.929688 49.40625 -120.34375 49.40625 -115.46875 L 49.40625 -15.53125 C 49.40625 -10.664062 49.6875 -7.078125 50.25 -4.765625 C 50.8125 -2.460938 51.65625 -0.875 52.78125 0 Z M 3.75 0 "/></g></g></g><path stroke-linecap="round" transform="matrix(0.20673, -0.720946, 0.720946, 0.20673, 222.448721, 250.401488)" fill="none" stroke-linejoin="miter" d="M 2.499009 2.502533 L 136.816249 2.50003 " stroke="#373434" stroke-width="5" stroke-opacity="1" stroke-miterlimit="4"/><path stroke-linecap="round" transform="matrix(0.209078, -0.720268, 0.720268, 0.209078, 560.437173, 253.408109)" fill="none" stroke-linejoin="miter" d="M 2.999909 3.001903 L 177.380698 2.99901 " stroke="#286181" stroke-width="6" stroke-opacity="1" stroke-miterlimit="4"/><path stroke-linecap="round" transform="matrix(0.20673, -0.720946, 0.720946, 0.20673, 187.173717, 247.184662)" fill="none" stroke-linejoin="miter" d="M 2.500615 2.498826 L 136.812849 2.497759 " stroke="#373434" stroke-width="5" stroke-opacity="1" stroke-miterlimit="4"/><path stroke-linecap="round" transform="matrix(0.75, 0, 0, 0.75, 236.076366, 206.214654)" fill="none" stroke-linejoin="miter" d="M 2.502345 2.500254 L 47.616932 2.500254 " stroke="#373434" stroke-width="5" stroke-opacity="1" stroke-miterlimit="4"/><path stroke-linecap="round" transform="matrix(0.75, 0, 0, 0.75, 577.769396, 195.905656)" fill="none" stroke-linejoin="miter" d="M 2.500181 2.500792 L 56.619976 2.500792 " stroke="#286181" stroke-width="5" stroke-opacity="1" stroke-miterlimit="4"/><path stroke-linecap="round" transform="matrix(0.20673, -0.720946, 0.720946, 0.20673, 110.50969, 247.701459)" fill="none" stroke-linejoin="miter" d="M 2.502104 2.498351 L 136.814338 2.497284 " stroke="#373434" stroke-width="5" stroke-opacity="1" stroke-miterlimit="4"/></svg>